<mxfile host="Electron" agent="Mozilla/5.0 (Windows NT 10.0; Win64; x64) AppleWebKit/537.36 (KHTML, like Gecko) draw.io/28.0.6 Chrome/138.0.7204.100 Electron/37.2.3 Safari/537.36" version="28.0.6">
  <diagram name="Page-1" id="aEkDXKO9AWyQZe8o8PYU">
    <mxGraphModel dx="2066" dy="1201" grid="1" gridSize="10" guides="1" tooltips="1" connect="1" arrows="1" fold="1" page="1" pageScale="1" pageWidth="1169" pageHeight="827" math="0" shadow="0">
      <root>
        <mxCell id="0" />
        <mxCell id="1" parent="0" />
        <mxCell id="l8-MF-MAbr8pd2eefMHD-4" value="" style="whiteSpace=wrap;html=1;aspect=fixed;" vertex="1" parent="1">
          <mxGeometry x="40" y="130" width="150" height="150" as="geometry" />
        </mxCell>
        <mxCell id="l8-MF-MAbr8pd2eefMHD-2" value="" style="whiteSpace=wrap;html=1;aspect=fixed;sketch=0;dashed=0;whitespace=wrap;verticalLabelPosition=bottom;verticalAlign=top;fillColor=#2875E2;strokeColor=#ffffff;points=[[0.005,0.63,0],[0.1,0.2,0],[0.9,0.2,0],[0.5,0,0],[0.995,0.63,0],[0.72,0.99,0],[0.5,1,0],[0.28,0.99,0]];shape=mxgraph.kubernetes.icon2;prIcon=api;" vertex="1" parent="1">
          <mxGeometry x="75" y="160" width="80" height="80" as="geometry" />
        </mxCell>
        <mxCell id="l8-MF-MAbr8pd2eefMHD-3" value="&lt;font&gt;API&lt;/font&gt;" style="text;html=1;align=center;verticalAlign=middle;whiteSpace=wrap;rounded=0;fontColor=#333333;" vertex="1" parent="1">
          <mxGeometry x="85" y="240" width="60" height="30" as="geometry" />
        </mxCell>
        <mxCell id="l8-MF-MAbr8pd2eefMHD-5" value="&lt;font style=&quot;font-size: 15px;&quot;&gt;&lt;b&gt;Data Source&lt;/b&gt;&lt;/font&gt;" style="text;html=1;align=center;verticalAlign=middle;whiteSpace=wrap;rounded=0;" vertex="1" parent="1">
          <mxGeometry x="40" y="129" width="100" height="30" as="geometry" />
        </mxCell>
        <mxCell id="l8-MF-MAbr8pd2eefMHD-6" value="" style="swimlane;startSize=0;" vertex="1" parent="1">
          <mxGeometry x="260" y="129" width="690" height="600" as="geometry" />
        </mxCell>
        <mxCell id="l8-MF-MAbr8pd2eefMHD-13" value="" style="swimlane;startSize=0;" vertex="1" parent="l8-MF-MAbr8pd2eefMHD-6">
          <mxGeometry x="20" y="26" width="190" height="554" as="geometry" />
        </mxCell>
        <mxCell id="l8-MF-MAbr8pd2eefMHD-17" value="&lt;font style=&quot;font-size: 15px;&quot;&gt;&lt;b&gt;Bronze&lt;/b&gt;&lt;/font&gt;" style="text;html=1;align=center;verticalAlign=middle;whiteSpace=wrap;rounded=0;" vertex="1" parent="l8-MF-MAbr8pd2eefMHD-13">
          <mxGeometry x="65" y="5" width="60" height="30" as="geometry" />
        </mxCell>
        <mxCell id="l8-MF-MAbr8pd2eefMHD-21" value="" style="whiteSpace=wrap;html=1;aspect=fixed;" vertex="1" parent="l8-MF-MAbr8pd2eefMHD-13">
          <mxGeometry x="22.5" y="45" width="145" height="145" as="geometry" />
        </mxCell>
        <mxCell id="l8-MF-MAbr8pd2eefMHD-24" value="" style="image;sketch=0;aspect=fixed;html=1;points=[];align=center;fontSize=12;image=img/lib/mscae/Data_Lake.svg;" vertex="1" parent="l8-MF-MAbr8pd2eefMHD-13">
          <mxGeometry x="76" y="93" width="38" height="50" as="geometry" />
        </mxCell>
        <mxCell id="l8-MF-MAbr8pd2eefMHD-26" value="Data Lake Gen2" style="text;html=1;align=center;verticalAlign=middle;whiteSpace=wrap;rounded=0;fontColor=#333333;" vertex="1" parent="l8-MF-MAbr8pd2eefMHD-13">
          <mxGeometry x="42.5" y="143" width="105" height="30" as="geometry" />
        </mxCell>
        <mxCell id="l8-MF-MAbr8pd2eefMHD-28" value="&lt;font style=&quot;font-size: 13px;&quot;&gt;&lt;b style=&quot;&quot;&gt;Raw Data Store&lt;/b&gt;&lt;/font&gt;" style="text;html=1;align=center;verticalAlign=middle;whiteSpace=wrap;rounded=0;" vertex="1" parent="l8-MF-MAbr8pd2eefMHD-13">
          <mxGeometry x="22.5" y="45" width="107.5" height="30" as="geometry" />
        </mxCell>
        <mxCell id="l8-MF-MAbr8pd2eefMHD-15" value="" style="swimlane;startSize=0;" vertex="1" parent="l8-MF-MAbr8pd2eefMHD-6">
          <mxGeometry x="250" y="26" width="190" height="554" as="geometry" />
        </mxCell>
        <mxCell id="l8-MF-MAbr8pd2eefMHD-19" value="&lt;font style=&quot;font-size: 15px;&quot;&gt;&lt;b&gt;Silver&lt;/b&gt;&lt;/font&gt;" style="text;html=1;align=center;verticalAlign=middle;whiteSpace=wrap;rounded=0;" vertex="1" parent="l8-MF-MAbr8pd2eefMHD-15">
          <mxGeometry x="65" y="5" width="60" height="30" as="geometry" />
        </mxCell>
        <mxCell id="l8-MF-MAbr8pd2eefMHD-22" value="" style="whiteSpace=wrap;html=1;aspect=fixed;" vertex="1" parent="l8-MF-MAbr8pd2eefMHD-15">
          <mxGeometry x="22.5" y="45" width="145" height="145" as="geometry" />
        </mxCell>
        <mxCell id="l8-MF-MAbr8pd2eefMHD-25" value="" style="image;sketch=0;aspect=fixed;html=1;points=[];align=center;fontSize=12;image=img/lib/mscae/Data_Lake.svg;" vertex="1" parent="l8-MF-MAbr8pd2eefMHD-15">
          <mxGeometry x="76" y="92.5" width="38" height="50" as="geometry" />
        </mxCell>
        <mxCell id="l8-MF-MAbr8pd2eefMHD-27" value="Data Lake Gen2" style="text;html=1;align=center;verticalAlign=middle;whiteSpace=wrap;rounded=0;fontColor=#333333;" vertex="1" parent="l8-MF-MAbr8pd2eefMHD-15">
          <mxGeometry x="42.5" y="142.5" width="105" height="30" as="geometry" />
        </mxCell>
        <mxCell id="l8-MF-MAbr8pd2eefMHD-29" value="&lt;font style=&quot;font-size: 13px;&quot;&gt;&lt;b style=&quot;&quot;&gt;Transformed Data&lt;/b&gt;&lt;/font&gt;" style="text;html=1;align=center;verticalAlign=middle;whiteSpace=wrap;rounded=0;" vertex="1" parent="l8-MF-MAbr8pd2eefMHD-15">
          <mxGeometry x="22.5" y="45" width="117.5" height="30" as="geometry" />
        </mxCell>
        <mxCell id="l8-MF-MAbr8pd2eefMHD-16" value="" style="swimlane;startSize=0;fontStyle=0" vertex="1" parent="l8-MF-MAbr8pd2eefMHD-6">
          <mxGeometry x="480" y="26" width="190" height="554" as="geometry" />
        </mxCell>
        <mxCell id="l8-MF-MAbr8pd2eefMHD-20" value="&lt;font style=&quot;font-size: 15px;&quot;&gt;&lt;b&gt;Gold&lt;/b&gt;&lt;/font&gt;" style="text;html=1;align=center;verticalAlign=middle;whiteSpace=wrap;rounded=0;" vertex="1" parent="l8-MF-MAbr8pd2eefMHD-16">
          <mxGeometry x="65" y="5" width="60" height="30" as="geometry" />
        </mxCell>
        <mxCell id="l8-MF-MAbr8pd2eefMHD-23" value="" style="whiteSpace=wrap;html=1;aspect=fixed;" vertex="1" parent="l8-MF-MAbr8pd2eefMHD-16">
          <mxGeometry x="22.5" y="45" width="145" height="145" as="geometry" />
        </mxCell>
        <mxCell id="l8-MF-MAbr8pd2eefMHD-37" value="" style="image;aspect=fixed;html=1;points=[];align=center;fontSize=12;image=img/lib/azure2/analytics/Azure_Synapse_Analytics.svg;" vertex="1" parent="l8-MF-MAbr8pd2eefMHD-16">
          <mxGeometry x="70.32000000000001" y="89.13" width="49.35" height="56.75" as="geometry" />
        </mxCell>
        <mxCell id="l8-MF-MAbr8pd2eefMHD-38" value="&lt;font style=&quot;font-size: 13px;&quot;&gt;&lt;b style=&quot;&quot;&gt;Serving&lt;/b&gt;&lt;/font&gt;" style="text;html=1;align=center;verticalAlign=middle;whiteSpace=wrap;rounded=0;" vertex="1" parent="l8-MF-MAbr8pd2eefMHD-16">
          <mxGeometry x="22.5" y="45" width="57.5" height="30" as="geometry" />
        </mxCell>
        <mxCell id="l8-MF-MAbr8pd2eefMHD-39" value="Synapse" style="text;html=1;align=center;verticalAlign=middle;whiteSpace=wrap;rounded=0;fontColor=#333333;" vertex="1" parent="l8-MF-MAbr8pd2eefMHD-16">
          <mxGeometry x="42.5" y="145" width="105" height="30" as="geometry" />
        </mxCell>
        <mxCell id="l8-MF-MAbr8pd2eefMHD-18" value="&lt;font style=&quot;font-size: 15px;&quot;&gt;&lt;b&gt;Medallion&lt;/b&gt;&lt;/font&gt;" style="text;html=1;align=center;verticalAlign=middle;whiteSpace=wrap;rounded=0;" vertex="1" parent="l8-MF-MAbr8pd2eefMHD-6">
          <mxGeometry x="297.5" y="-4" width="95" height="30" as="geometry" />
        </mxCell>
        <mxCell id="l8-MF-MAbr8pd2eefMHD-34" value="" style="shape=singleArrow;whiteSpace=wrap;html=1;arrowWidth=0.4;arrowSize=0.4;fontStyle=1;startSize=0;" vertex="1" parent="l8-MF-MAbr8pd2eefMHD-6">
          <mxGeometry x="210" y="281.5" width="40" height="37" as="geometry" />
        </mxCell>
        <mxCell id="l8-MF-MAbr8pd2eefMHD-36" value="" style="shape=singleArrow;whiteSpace=wrap;html=1;arrowWidth=0.4;arrowSize=0.4;fontStyle=1;startSize=0;" vertex="1" parent="l8-MF-MAbr8pd2eefMHD-6">
          <mxGeometry x="440" y="281.5" width="40" height="37" as="geometry" />
        </mxCell>
        <mxCell id="l8-MF-MAbr8pd2eefMHD-40" value="" style="image;aspect=fixed;html=1;points=[];align=center;fontSize=12;image=img/lib/azure2/analytics/Azure_Databricks.svg;imageBackground=default;" vertex="1" parent="l8-MF-MAbr8pd2eefMHD-6">
          <mxGeometry x="420" y="11" width="39.71" height="43" as="geometry" />
        </mxCell>
        <mxCell id="l8-MF-MAbr8pd2eefMHD-7" value="" style="endArrow=classic;html=1;rounded=0;entryX=0;entryY=0.5;entryDx=0;entryDy=0;" edge="1" parent="1" target="l8-MF-MAbr8pd2eefMHD-6">
          <mxGeometry width="50" height="50" relative="1" as="geometry">
            <mxPoint x="170" y="430" as="sourcePoint" />
            <mxPoint x="220" y="380" as="targetPoint" />
          </mxGeometry>
        </mxCell>
        <mxCell id="l8-MF-MAbr8pd2eefMHD-9" value="" style="whiteSpace=wrap;html=1;aspect=fixed;" vertex="1" parent="1">
          <mxGeometry x="40" y="370" width="150" height="150" as="geometry" />
        </mxCell>
        <mxCell id="l8-MF-MAbr8pd2eefMHD-8" value="" style="image;aspect=fixed;html=1;points=[];align=center;fontSize=12;image=img/lib/azure2/databases/Data_Factory.svg;" vertex="1" parent="1">
          <mxGeometry x="81" y="411" width="68" height="68" as="geometry" />
        </mxCell>
        <mxCell id="l8-MF-MAbr8pd2eefMHD-10" value="&lt;font&gt;Data Factory&lt;/font&gt;" style="text;html=1;align=center;verticalAlign=middle;whiteSpace=wrap;rounded=0;fontColor=#333333;" vertex="1" parent="1">
          <mxGeometry x="65.5" y="479" width="99" height="30" as="geometry" />
        </mxCell>
        <mxCell id="l8-MF-MAbr8pd2eefMHD-11" value="&lt;font style=&quot;font-size: 15px;&quot;&gt;&lt;b style=&quot;&quot;&gt;Data Ingestion&lt;/b&gt;&lt;/font&gt;" style="text;html=1;align=center;verticalAlign=middle;whiteSpace=wrap;rounded=0;" vertex="1" parent="1">
          <mxGeometry x="40" y="370" width="115" height="30" as="geometry" />
        </mxCell>
        <mxCell id="l8-MF-MAbr8pd2eefMHD-12" value="" style="endArrow=classic;html=1;rounded=0;entryX=0.643;entryY=-0.033;entryDx=0;entryDy=0;entryPerimeter=0;" edge="1" parent="1" target="l8-MF-MAbr8pd2eefMHD-11">
          <mxGeometry width="50" height="50" relative="1" as="geometry">
            <mxPoint x="114.5" y="280" as="sourcePoint" />
            <mxPoint x="115" y="360" as="targetPoint" />
          </mxGeometry>
        </mxCell>
        <mxCell id="l8-MF-MAbr8pd2eefMHD-42" value="" style="whiteSpace=wrap;html=1;aspect=fixed;" vertex="1" parent="1">
          <mxGeometry x="1010" y="354" width="150" height="150" as="geometry" />
        </mxCell>
        <mxCell id="l8-MF-MAbr8pd2eefMHD-43" value="" style="endArrow=classic;html=1;rounded=0;entryX=0;entryY=0.5;entryDx=0;entryDy=0;" edge="1" parent="1" target="l8-MF-MAbr8pd2eefMHD-42">
          <mxGeometry width="50" height="50" relative="1" as="geometry">
            <mxPoint x="950" y="430" as="sourcePoint" />
            <mxPoint x="1000" y="380" as="targetPoint" />
          </mxGeometry>
        </mxCell>
        <mxCell id="l8-MF-MAbr8pd2eefMHD-44" value="&lt;font style=&quot;font-size: 15px;&quot;&gt;&lt;b&gt;Reporting&lt;/b&gt;&lt;/font&gt;" style="text;html=1;align=center;verticalAlign=middle;whiteSpace=wrap;rounded=0;" vertex="1" parent="1">
          <mxGeometry x="1010" y="354" width="80" height="30" as="geometry" />
        </mxCell>
        <mxCell id="l8-MF-MAbr8pd2eefMHD-45" value="" style="shape=image;aspect=fixed;image=data:image/svg+xml,PHN2ZyBoZWlnaHQ9IjI0NjciIHdpZHRoPSIyNTAwIiB4bWxucz0iaHR0cDovL3d3dy53My5vcmcvMjAwMC9zdmciIHZpZXdCb3g9IjAgMCA2MC4zIDU5LjUiPjxwYXRoIGQ9Ik0yOC41IDQwLjJoMy4zdi05aDguM1YyOGgtOC4zdi05aC0zLjN2OWgtOC4ydjMuMmg4LjJ6IiBmaWxsPSIjZTg3NjJkIi8+PHBhdGggZD0iTTEzLjIgNTMuMkgxNnYtOGg3LjR2LTIuNUgxNnYtOC4xaC0yLjh2OC4xSDUuOHYyLjVoNy40eiIgZmlsbD0iI2M3MjAzNyIvPjxwYXRoIGQ9Ik00NC4zIDI0LjNoMi44di04aDcuNXYtMi40aC03LjVWNS44aC0yLjh2OC4xaC03LjR2Mi40aDcuNHoiIGZpbGw9IiM1Yjg3OWIiLz48cGF0aCBkPSJNMjkgNTkuNWgyLjR2LTUuN2g1LjF2LTIuMWgtNS4xVjQ2SDI5djUuN2gtNXYyLjFoNXoiIGZpbGw9IiM1YzY2OTIiLz48cGF0aCBkPSJNMTMuMyAyNC4zaDIuNnYtOC4xaDcuNXYtMi4zaC03LjVWNS44aC0yLjZ2OC4xSDUuOHYyLjNoNy41eiIgZmlsbD0iI2ViOTEyOSIvPjxwYXRoIGQ9Ik01Mi44IDM2LjNoMi40di01LjZoNS4xdi0yLjJoLTUuMXYtNS42aC0yLjR2NS42aC01djIuMmg1eiIgZmlsbD0iIzVjNjY5MiIvPjxwYXRoIGNsaXAtcnVsZT0iZXZlbm9kZCIgZD0iTTQ0LjMgNTMuMmgyLjh2LThoNy41di0yLjVoLTcuNXYtOC4xaC0yLjh2OC4xaC03LjR2Mi41aDcuNHoiIGZpbGw9IiMxZjQ1N2UiIGZpbGwtcnVsZT0iZXZlbm9kZCIvPjxwYXRoIGQ9Ik0zNi4xIDcuMlY1LjVoLTVWMGgtMS44djUuNWgtNXYxLjdoNXY1LjVoMS44VjcuMnpNNSAzNS45aDEuOHYtNS41aDV2LTEuN2gtNXYtNS40SDV2NS40SDB2MS44bDUtLjF6IiBmaWxsPSIjNzE5OWE2Ii8+PC9zdmc+;imageBackground=default;" vertex="1" parent="1">
          <mxGeometry x="1064.23" y="408.5" width="41.55" height="41" as="geometry" />
        </mxCell>
        <mxCell id="l8-MF-MAbr8pd2eefMHD-46" value="&lt;font&gt;Tableau&lt;/font&gt;" style="text;html=1;align=center;verticalAlign=middle;whiteSpace=wrap;rounded=0;fontColor=#333333;" vertex="1" parent="1">
          <mxGeometry x="1035.5" y="449.5" width="99" height="30" as="geometry" />
        </mxCell>
        <mxCell id="l8-MF-MAbr8pd2eefMHD-48" value="&lt;h1 style=&quot;margin-top: 0px;&quot;&gt;Data Archtecture&lt;/h1&gt;" style="text;html=1;whiteSpace=wrap;overflow=hidden;rounded=0;" vertex="1" parent="1">
          <mxGeometry x="485" y="30" width="200" height="40" as="geometry" />
        </mxCell>
      </root>
    </mxGraphModel>
  </diagram>
</mxfile>
